<svg width="78" height="78" viewBox="0 0 78 78" fill="none" xmlns="http://www.w3.org/2000/svg">
<path d="M0 39C0 17.4609 17.4609 0 39 0C60.5391 0 78 17.4609 78 39C78 60.5391 60.5391 78 39 78C17.4609 78 0 60.5391 0 39Z" fill="#768EBB"/>
<path fill-rule="evenodd" clip-rule="evenodd" d="M21.4216 45.9008C20.675 46.7148 19.4098 46.7693 18.5958 46.0227L15.6481 43.3188C14.8341 42.5722 14.7795 41.307 15.5261 40.493L36.481 17.6481C37.2277 16.8341 38.4928 16.7795 39.3068 17.5261L43.7284 21.5819L43.6872 21.6269L62.4149 38.8051C63.2288 39.5518 63.2834 40.8169 62.5368 41.6309L59.8329 44.5786C59.0863 45.3926 57.8211 45.4472 57.0071 44.7006L42.6909 31.5688L43.8516 58.4676C43.8992 59.5711 43.0432 60.5043 41.9397 60.5519L36.9443 60.7675C35.8408 60.8151 34.9076 59.9591 34.86 58.8556L33.7223 32.4906L21.4216 45.9008Z" fill="white"/>
<path d="M39 72C20.7746 72 6 57.2254 6 39H-6C-6 63.8528 14.1472 84 39 84V72ZM72 39C72 57.2254 57.2254 72 39 72V84C63.8528 84 84 63.8528 84 39H72ZM39 6C57.2254 6 72 20.7746 72 39H84C84 14.1472 63.8528 -6 39 -6V6ZM39 -6C14.1472 -6 -6 14.1472 -6 39H6C6 20.7746 20.7746 6 39 6V-6Z" fill="#95A8CE"/>
</svg>
